HIERARCHY
ROOT Pelvis
{
	OFFSET 0.000000 0.941512 0.000000
	CHANNELS 6 Xposition Yposition Zposition Zrotation Yrotation Xrotation 
	JOINT Pelvis_L_Hip
	{
		OFFSET 0.000000 0.000000 0.000000
		CHANNELS 3 Zrotation Yrotation Xrotation
		JOINT L_Hip
		{
			OFFSET 0.062321 -0.080322 -0.016990
			CHANNELS 3 Zrotation Yrotation Xrotation
			JOINT L_Knee
			{
				OFFSET 0.093051 -0.381305 -0.029784
				CHANNELS 3 Zrotation Yrotation Xrotation
				JOINT L_Ankle
				{
					OFFSET -0.010371 -0.431000 -0.033614
					CHANNELS 3 Zrotation Yrotation Xrotation
					End Site #name: L_Foot
					{
						OFFSET 0.069299 -0.038670 0.119418
					}
				}
			}
		}
	}
	JOINT Pelvis_R_Hip
	{
		OFFSET 0.000000 0.000000 0.000000
		CHANNELS 3 Zrotation Yrotation Xrotation
		JOINT R_Hip
		{
			OFFSET -0.055334 -0.094904 -0.002373
			CHANNELS 3 Zrotation Yrotation Xrotation
			JOINT R_Knee
			{
				OFFSET -0.064207 -0.384370 -0.019592
				CHANNELS 3 Zrotation Yrotation Xrotation
				JOINT R_Ankle
				{
					OFFSET 0.025418 -0.419734 -0.065953
					CHANNELS 3 Zrotation Yrotation Xrotation
					End Site #name: R_Foot
					{
						OFFSET -0.057233 -0.039888 0.132134
					}
				}
			}
		}
	}
	JOINT Pelvis_Spine1
	{
		OFFSET 0.000000 0.000000 0.000000
		CHANNELS 3 Zrotation Yrotation Xrotation
		JOINT Spine1
		{
			OFFSET -0.005562 0.124093 -0.043360
			CHANNELS 3 Zrotation Yrotation Xrotation
			JOINT Spine2
			{
				OFFSET 0.012244 0.139499 0.029894
				CHANNELS 3 Zrotation Yrotation Xrotation
				JOINT Spine3
				{
					OFFSET -0.002556 0.056561 0.009225
					CHANNELS 3 Zrotation Yrotation Xrotation
					JOINT Spine3_Neck
					{
						OFFSET 0.000000 0.000000 0.000000
						CHANNELS 3 Zrotation Yrotation Xrotation
						JOINT Neck
						{
							OFFSET -0.005205 0.217920 -0.024551
							CHANNELS 3 Zrotation Yrotation Xrotation
							End Site #name: Head
							{
								OFFSET 0.002365 0.091850 0.046637
							}
						}
					}
					JOINT Spine3_L_Collar
					{
						OFFSET 0.000000 0.000000 0.000000
						CHANNELS 3 Zrotation Yrotation Xrotation
						JOINT L_Collar
						{
							OFFSET 0.072225 0.116603 -0.009480
							CHANNELS 3 Zrotation Yrotation Xrotation
							JOINT L_Shoulder
							{
								OFFSET 0.115937 -0.058643 -0.021018
								CHANNELS 3 Zrotation Yrotation Xrotation
								JOINT L_Elbow
								{
									OFFSET 0.021994 -0.254722 -0.024492
									CHANNELS 3 Zrotation Yrotation Xrotation
									End Site #name: L_Wrist
									{
										OFFSET 0.048810 -0.240214 0.103329
									}
								}
							}
						}
					}
					JOINT Spine3_R_Collar
					{
						OFFSET 0.000000 0.000000 0.000000
						CHANNELS 3 Zrotation Yrotation Xrotation
						JOINT R_Collar
						{
							OFFSET -0.073372 0.120704 -0.024611
							CHANNELS 3 Zrotation Yrotation Xrotation
							JOINT R_Shoulder
							{
								OFFSET -0.108089 -0.054969 -0.020504
								CHANNELS 3 Zrotation Yrotation Xrotation
								JOINT R_Elbow
								{
									OFFSET -0.033684 -0.260739 0.009889
									CHANNELS 3 Zrotation Yrotation Xrotation
									End Site #name: R_Wrist
									{
										OFFSET -0.067980 -0.232763 0.118463
									}
								}
							}
						}
					}
				}
			}
		}
	}
}
MOTION
Frames: 7
Frame Time: 0.041667
0.000000 0.965608 0.000000 -1.372281 -2.076639 3.013857 0.000000 0.000000 0.000000 -5.016413 -2.156445 -8.919736 10.862972 -1.549709 5.774534 -6.970932 -16.063071 3.185675 0.000000 0.000000 0.000000 2.887385 0.769928 -4.865597 -6.202858 0.445203 -4.538917 6.043103 13.052590 4.151516 0.000000 0.000000 0.000000 4.807114 -0.552166 -3.959774 -7.301182 5.146490 31.625062 3.975192 2.393179 -36.360343 0.000000 0.000000 0.000000 -1.443480 0.476374 13.912649 0.000000 0.000000 0.000000 26.964438 -12.133592 -4.925284 -20.749022 1.440626 2.082217 1.366110 2.759042 11.769755 0.000000 0.000000 0.000000 -25.899259 10.565724 -3.080223 22.904424 -1.466081 10.604065 0.157030 -2.407550 8.662140 
0.000007 0.965556 0.000462 -1.399266 -2.080490 3.026102 0.000000 0.000000 0.000000 -4.976413 -2.149741 -8.896292 10.845365 -1.546698 5.766001 -6.983509 -16.068620 3.202022 0.000000 0.000000 0.000000 2.923661 0.769301 -4.865259 -6.219398 0.450462 -4.507994 6.049423 13.073801 4.150135 0.000000 0.000000 0.000000 4.877644 -0.568858 -3.932301 -7.375647 5.170315 31.540396 3.995014 2.409831 -36.311374 0.000000 0.000000 0.000000 -1.451920 0.481010 13.947740 0.000000 0.000000 0.000000 26.888179 -12.121744 -4.922041 -20.629368 1.457774 2.161536 1.347102 2.746418 11.726754 0.000000 0.000000 0.000000 -25.891189 10.574896 -3.089982 22.883904 -1.491673 10.673262 0.173786 -2.395787 8.643848 
-0.000104 0.965498 0.000967 -1.419767 -2.070995 3.064202 0.000000 0.000000 0.000000 -4.943423 -2.153322 -8.911198 10.842642 -1.546993 5.774365 -6.980802 -16.081054 3.192142 0.000000 0.000000 0.000000 2.958631 0.772027 -4.882712 -6.227766 0.454038 -4.486963 6.036301 13.073655 4.127470 0.000000 0.000000 0.000000 4.915657 -0.577853 -3.919315 -7.410839 5.178419 31.481546 3.994053 2.399836 -36.280221 0.000000 0.000000 0.000000 -1.439024 0.473704 13.941778 0.000000 0.000000 0.000000 26.818903 -12.079391 -4.891807 -20.555048 1.467764 2.209088 1.351435 2.734546 11.653354 0.000000 0.000000 0.000000 -25.852424 10.527145 -3.054112 22.862424 -1.504775 10.709009 0.185526 -2.384239 8.619688 
-0.000349 0.965181 0.001422 -1.489921 -1.987736 3.219335 0.000000 0.000000 0.000000 -4.829239 -2.203967 -9.096335 10.860401 -1.551316 5.790642 -7.062250 -16.155914 3.277020 0.000000 0.000000 0.000000 3.078220 0.794669 -5.009286 -6.272728 0.458780 -4.494546 6.001475 12.980798 4.119126 0.000000 0.000000 0.000000 5.038434 -0.604385 -3.898883 -7.502933 5.190390 31.306860 4.017015 2.366908 -36.190578 0.000000 0.000000 0.000000 -1.385493 0.442901 13.858819 0.000000 0.000000 0.000000 26.657029 -12.021250 -4.856837 -20.448648 1.489795 2.298025 1.347661 2.677272 11.333942 0.000000 0.000000 0.000000 -25.804973 10.411343 -2.963822 22.851957 -1.505635 10.701514 0.211248 -2.361125 8.574568 
-0.000689 0.965009 0.001653 -1.504009 -1.915239 3.337205 0.000000 0.000000 0.000000 -4.731209 -2.274990 -9.352562 10.844356 -1.577407 6.027602 -7.001201 -16.208965 3.161669 0.000000 0.000000 0.000000 3.119661 0.829653 -5.192746 -6.291620 0.477604 -4.352163 5.957431 12.900460 4.086791 0.000000 0.000000 0.000000 5.038177 -0.615347 -3.820889 -7.510062 5.180922 31.253364 4.034643 2.347725 -36.182970 0.000000 0.000000 0.000000 -1.334920 0.413648 13.713379 0.000000 0.000000 0.000000 26.648312 -12.109261 -4.931868 -20.521539 1.489304 2.278750 1.328812 2.641751 11.166962 0.000000 0.000000 0.000000 -25.776558 10.417945 -2.975207 22.789463 -1.510793 10.714890 0.257278 -2.356731 8.626771 
-0.001221 0.965000 0.001860 -1.508106 -1.833420 3.421308 0.000000 0.000000 0.000000 -4.660956 -2.372804 -9.703858 10.812565 -1.633946 6.540686 -6.803962 -16.219106 2.864599 0.000000 0.000000 0.000000 3.201790 0.869975 -5.403265 -6.350294 0.518986 -4.059996 5.829746 12.813685 3.906073 0.000000 0.000000 0.000000 5.045220 -0.629909 -3.723793 -7.498381 5.165600 31.230455 4.033381 2.336797 -36.163416 0.000000 0.000000 0.000000 -1.264986 0.369552 13.759556 0.000000 0.000000 0.000000 26.647113 -12.189590 -4.996169 -20.606879 1.472695 2.198251 1.265704 2.577843 10.919396 0.000000 0.000000 0.000000 -25.809997 10.472649 -3.021593 22.757411 -1.540614 10.799064 0.296615 -2.314801 8.533223 
-0.001926 0.964929 0.002460 -1.508553 -1.783444 3.414315 0.000000 0.000000 0.000000 -4.655238 -2.442066 -9.949681 10.871271 -1.707046 7.087470 -6.696217 -16.219669 2.704084 0.000000 0.000000 0.000000 3.308666 0.882651 -5.471847 -6.414450 0.554986 -3.820496 5.689268 12.760410 3.681166 0.000000 0.000000 0.000000 5.130270 -0.665164 -3.577201 -7.521404 5.171843 31.227484 4.029915 2.347279 -36.128694 0.000000 0.000000 0.000000 -1.196633 0.321722 14.130478 0.000000 0.000000 0.000000 26.659879 -12.260165 -5.049173 -20.717740 1.435718 2.038554 1.236319 2.512907 10.608973 0.000000 0.000000 0.000000 -25.925435 10.548653 -3.075778 22.697284 -1.561227 10.854786 0.289411 -2.283302 8.407963 
